<svg width="1006" height="549" viewBox="0 0 1006 549" fill="none" xmlns="http://www.w3.org/2000/svg">
<g clip-path="url(#clip0_157_58)">
<path d="M872.894 545.099C872.99 544.811 882.308 515.98 865.817 490.254L864.133 491.333C880.097 516.236 871.09 544.188 870.997 544.467L872.894 545.099Z" fill="#E4E4E4"/>
<path d="M854.024 493.952C854.38 495.637 855.064 497.235 856.037 498.656C857.01 500.077 858.253 501.292 859.696 502.232C861.139 503.172 862.752 503.819 864.445 504.136C866.138 504.452 867.876 504.432 869.561 504.077C871.246 503.721 872.845 503.038 874.266 502.065C875.686 501.092 876.901 499.848 877.842 498.405C878.782 496.963 879.429 495.349 879.745 493.656C880.062 491.963 880.042 490.225 879.686 488.54C878.192 481.454 865.522 463.818 858.436 465.312C851.349 466.807 852.53 486.866 854.024 493.952Z" fill="#E4E4E4"/>
<path d="M856.414 527.096C862.738 533.93 874.052 533.745 874.052 533.745C874.052 533.745 875.112 522.479 868.788 515.645C862.464 508.811 851.15 508.997 851.15 508.997C851.15 508.997 850.09 520.262 856.414 527.096Z" fill="#E4E4E4"/>
<path d="M952.27 547.097C952.496 546.417 974.486 478.38 935.568 417.668L931.595 420.215C969.267 478.985 948.011 544.947 947.792 545.606L952.27 547.097Z" fill="#E4E4E4"/>
<path d="M907.739 426.4C909.435 434.429 914.25 441.456 921.125 445.936C928.001 450.415 936.374 451.98 944.403 450.287C952.433 448.593 959.461 443.78 963.942 436.906C968.423 430.031 969.99 421.659 968.299 413.629C964.772 396.906 934.873 355.286 918.15 358.813C901.426 362.339 904.213 409.677 907.739 426.4Z" fill="#E4E4E4"/>
<path d="M913.378 504.614C928.303 520.742 955.003 520.304 955.003 520.304C955.003 520.304 957.505 493.718 942.58 477.59C927.655 461.462 900.955 461.9 900.955 461.9C900.955 461.9 898.453 488.486 913.378 504.614Z" fill="#E4E4E4"/>
<path d="M580.096 541.975L565.504 535.831L555.494 462.68H422.189L411.339 535.532L398.284 542.06C397.659 542.372 397.158 542.886 396.862 543.519C396.566 544.151 396.492 544.865 396.653 545.545C396.813 546.225 397.199 546.83 397.746 547.264C398.294 547.697 398.972 547.933 399.67 547.933H578.893C579.609 547.933 580.303 547.685 580.857 547.232C581.411 546.779 581.791 546.148 581.932 545.446C582.074 544.745 581.969 544.016 581.634 543.383C581.299 542.75 580.756 542.253 580.096 541.975Z" fill="#E6E6E6"/>
<path d="M816.987 472.411H162.158C158.722 472.403 155.43 471.033 153.003 468.6C150.577 466.168 149.214 462.873 149.214 459.437V367.098H829.932V459.437C829.932 462.873 828.569 466.168 826.142 468.6C823.715 471.033 820.423 472.403 816.987 472.411Z" fill="#CCCCCC"/>
<path d="M830.616 410.74H148.616V15.6391C148.621 11.4927 150.27 7.51755 153.202 4.58568C156.134 1.6538 160.109 0.0046475 164.256 0H814.976C819.123 0.00464478 823.098 1.65379 826.03 4.58566C828.962 7.51753 830.611 11.4927 830.616 15.6391V410.74Z" fill="#6E7B8F"/>
<path d="M789.887 28.6758H189.347C186.151 28.6798 183.087 29.952 180.827 32.2131C178.568 34.4742 177.299 37.5394 177.297 40.7358V370.006C177.299 373.202 178.568 376.267 180.827 378.528C183.087 380.79 186.151 382.062 189.347 382.066H789.887C793.083 382.06 796.146 380.787 798.405 378.527C800.664 376.266 801.934 373.202 801.938 370.006V40.7358C801.934 37.5399 800.664 34.4756 798.405 32.2149C796.146 29.9541 793.083 28.6814 789.887 28.6758Z" fill="white"/>
<path d="M295.797 28.6758V382.066H189.347C186.151 382.062 183.087 380.79 180.827 378.528C178.568 376.267 177.299 373.202 177.297 370.006V40.7358C177.299 37.5394 178.568 34.4742 180.827 32.2131C183.087 29.952 186.151 28.6798 189.347 28.6758H295.797Z" fill="#F0F0F0"/>
<path d="M207.978 207.198C206.779 206.925 205.536 206.918 204.335 207.178C203.134 207.438 202.004 207.958 201.026 208.702C200.047 209.445 199.244 210.394 198.672 211.482C198.1 212.57 197.773 213.769 197.715 214.997L169.062 223.444L180.924 233.458L206.315 223.901C208.383 223.862 210.366 223.065 211.886 221.662C213.407 220.259 214.36 218.347 214.565 216.288C214.77 214.229 214.213 212.167 212.999 210.491C211.785 208.816 209.998 207.644 207.978 207.198Z" fill="#FFB6B6"/>
<path d="M92.2051 270.771C89.3724 270.767 86.6331 269.757 84.4756 267.922C82.3182 266.086 80.8828 263.544 80.4254 260.748C79.968 257.953 80.5184 255.086 81.9784 252.658C83.4385 250.231 85.7132 248.401 88.397 247.495L146.461 227.895L191.753 211.395L197.312 230.85L157.328 257.196L94.7041 270.507C93.8826 270.682 93.045 270.77 92.2051 270.771Z" fill="#D4D6D8"/>
<path d="M128.541 538.793H136.693L140.572 507.348H128.539L128.541 538.793Z" fill="#FFB6B6"/>
<path d="M126.461 536.13L142.516 536.129C145.23 536.129 147.833 537.207 149.752 539.126C151.67 541.045 152.748 543.647 152.749 546.36V546.693L126.462 546.694L126.461 536.13Z" fill="#526179"/>
<path d="M66.033 538.793H74.185L78.064 507.348H66.032L66.033 538.793Z" fill="#FFB6B6"/>
<path d="M63.9534 536.13L80.0086 536.129C82.7221 536.129 85.3251 537.207 87.2439 539.126C89.1626 541.045 90.2407 543.647 90.2409 546.36V546.693L63.9539 546.694L63.9534 536.13Z" fill="#526179"/>
<path d="M65.9522 350.176C62.2213 358.867 61.4048 368.532 63.6248 377.725L61.2974 533.709H79.202L89.2263 447.927L105.851 391.404L123.805 435.293V526.764L141.094 525.729L150.404 428.643L139.765 359.485L65.9522 350.176Z" fill="#526179"/>
<path d="M131.452 228.818L116.158 224.163L112.168 216.184H92.5224L87.5639 224.828C87.5639 224.828 67.6146 232.143 66.9496 267.387C66.2847 302.63 63.6248 359.153 63.6248 359.153L142.286 370.368L131.452 228.818Z" fill="#D4D6D8"/>
<path d="M154.035 364.057C154.551 362.941 154.816 361.726 154.812 360.497C154.807 359.268 154.534 358.055 154.01 356.944C153.486 355.832 152.725 354.849 151.78 354.063C150.835 353.278 149.729 352.709 148.54 352.397L146.235 322.613L133.974 332.134L138.043 358.957C137.651 360.989 138.018 363.093 139.074 364.873C140.131 366.652 141.803 367.981 143.774 368.61C145.745 369.239 147.879 369.122 149.77 368.283C151.661 367.444 153.178 365.94 154.035 364.057Z" fill="#FFB6B6"/>
<path d="M133.116 348.706L115.658 304.118V240.095C115.658 237.046 116.823 234.112 118.916 231.894C121.009 229.676 123.87 228.342 126.915 228.165C129.959 227.988 132.956 228.981 135.292 230.942C137.627 232.902 139.125 235.682 139.479 238.711L146.579 299.581L153.301 347.314L133.116 348.706Z" fill="#D4D6D8"/>
<path d="M106.114 205.831C116.957 205.831 125.746 197.041 125.746 186.199C125.746 175.356 116.957 166.566 106.114 166.566C95.2712 166.566 86.4814 175.356 86.4814 186.199C86.4814 197.041 95.2712 205.831 106.114 205.831Z" fill="#FFB9B9"/>
<path d="M107.4 180.232C106.481 181.412 105.222 182.476 105.02 183.957C104.87 185.054 105.349 186.139 105.395 187.245C105.398 188.362 104.976 189.438 104.214 190.255C103.452 191.071 102.407 191.566 101.293 191.638C100.516 190.662 99.3948 190.02 98.1593 189.847C97.5445 189.777 96.9235 189.906 96.3877 190.216C95.8519 190.525 95.4295 190.999 95.1827 191.566C94.5997 193.213 95.9491 194.886 96.1661 196.62C96.1949 197.902 95.9875 199.179 95.5541 200.386C95.0567 202.375 94.9237 204.479 94.051 206.335C93.1783 208.19 91.2377 209.786 89.2288 209.376C87.5396 209.031 86.3966 207.395 85.9242 205.737C85.4517 204.079 85.473 202.321 85.131 200.631C84.0201 195.14 79.2939 191.072 77.4397 185.786C75.0637 179.012 77.918 171.265 82.8373 166.037C84.8261 163.747 87.4223 162.066 90.3259 161.189C93.3914 160.408 96.6326 160.969 99.7782 160.635C103.142 160.278 106.304 158.911 109.574 158.042C112.843 157.174 116.495 156.846 119.466 158.463C121.539 159.59 123.04 161.534 124.971 162.889C127.185 164.432 129.87 165.15 132.558 164.92L129.348 166.323C130.576 167.451 132.06 168.264 133.672 168.692C132.36 169.732 130.738 170.301 129.064 170.31C129.413 170.939 129.887 171.49 130.457 171.928C131.028 172.367 131.682 172.684 132.38 172.86C129.942 174.004 127.354 175.177 124.674 174.918C123.361 174.792 122.106 174.325 120.809 174.085C118.044 173.573 115.205 174.104 112.444 174.633C110.994 174.912 109.214 175.179 108.482 176.573C107.872 177.734 108.338 179.027 107.4 180.232Z" fill="#526179"/>
<path d="M236.547 236.691C253.845 236.691 267.867 222.668 267.867 205.371C267.867 188.073 253.845 174.051 236.547 174.051C219.25 174.051 205.227 188.073 205.227 205.371C205.227 222.668 219.25 236.691 236.547 236.691Z" fill="#D4D6D8"/>
<path d="M255.339 205.37H238.427V188.457H234.668V205.37H217.755V209.128H234.668V226.041H238.427V209.128H255.339V205.37Z" fill="white"/>
<path d="M503.256 70.0078C502.29 70.0088 501.364 70.393 500.681 71.076C499.998 71.7589 499.614 72.685 499.613 73.6508V134.649C499.614 135.615 499.998 136.541 500.681 137.224C501.364 137.907 502.29 138.291 503.256 138.292H749.158C750.124 138.291 751.05 137.907 751.733 137.224C752.416 136.541 752.8 135.615 752.801 134.649V73.6508C752.8 72.6849 752.416 71.7589 751.733 71.076C751.05 70.393 750.124 70.0088 749.158 70.0078H503.256Z" fill="white"/>
<path d="M503.256 70.0078C502.29 70.0088 501.364 70.393 500.681 71.076C499.998 71.7589 499.614 72.685 499.613 73.6508V134.649C499.614 135.615 499.998 136.541 500.681 137.224C501.364 137.907 502.29 138.291 503.256 138.292H749.158C750.124 138.291 751.05 137.907 751.733 137.224C752.416 136.541 752.8 135.615 752.801 134.649V73.6508C752.8 72.6849 752.416 71.7589 751.733 71.076C751.05 70.393 750.124 70.0088 749.158 70.0078H503.256Z" fill="#E6E6E6"/>
<path d="M503.711 134.193H748.703V74.1055H503.711V134.193Z" fill="white"/>
<path d="M531.566 91.3984C530.72 91.3984 529.909 91.7343 529.312 92.3321C528.714 92.9299 528.378 93.7406 528.378 94.5861C528.378 95.4315 528.714 96.2423 529.312 96.8401C529.909 97.4379 530.72 97.7737 531.566 97.7737H720.839C721.258 97.7739 721.673 97.6916 722.059 97.5316C722.446 97.3716 722.798 97.1369 723.094 96.841C723.39 96.5452 723.625 96.1939 723.785 95.8072C723.946 95.4205 724.028 95.006 724.028 94.5874C724.029 94.1688 723.946 93.7543 723.786 93.3675C723.626 92.9807 723.392 92.6292 723.096 92.333C722.8 92.0369 722.449 91.802 722.062 91.6416C721.675 91.4812 721.261 91.3986 720.842 91.3984H531.566Z" fill="#E4E4E4"/>
<path d="M531.566 110.527C530.721 110.529 529.912 110.865 529.315 111.463C528.719 112.061 528.384 112.871 528.384 113.715C528.384 114.559 528.719 115.369 529.315 115.967C529.912 116.565 530.721 116.901 531.566 116.903H720.84C721.685 116.904 722.497 116.57 723.096 115.974C723.695 115.378 724.032 114.567 724.034 113.722C724.036 112.877 723.702 112.065 723.106 111.466C722.509 110.867 721.699 110.529 720.854 110.527H531.566Z" fill="#E4E4E4"/>
<path d="M332.256 173.508C331.29 173.509 330.364 173.893 329.681 174.576C328.998 175.259 328.614 176.185 328.613 177.151V238.149C328.614 239.115 328.998 240.041 329.681 240.724C330.364 241.407 331.29 241.791 332.256 241.792H578.158C579.124 241.791 580.05 241.407 580.733 240.724C581.416 240.041 581.8 239.115 581.801 238.149V177.151C581.8 176.185 581.416 175.259 580.733 174.576C580.05 173.893 579.124 173.509 578.158 173.508H332.256Z" fill="white"/>
<path d="M332.256 173.508C331.29 173.509 330.364 173.893 329.681 174.576C328.998 175.259 328.614 176.185 328.613 177.151V238.149C328.614 239.115 328.998 240.041 329.681 240.724C330.364 241.407 331.29 241.791 332.256 241.792H578.158C579.124 241.791 580.05 241.407 580.733 240.724C581.416 240.041 581.8 239.115 581.801 238.149V177.151C581.8 176.185 581.416 175.259 580.733 174.576C580.05 173.893 579.124 173.509 578.158 173.508H332.256Z" fill="#E6E6E6"/>
<path d="M332.711 237.693H577.703V177.605H332.711V237.693Z" fill="white"/>
<path d="M360.566 194.898C359.72 194.898 358.909 195.234 358.312 195.832C357.714 196.43 357.378 197.241 357.378 198.086C357.378 198.931 357.714 199.742 358.312 200.34C358.909 200.938 359.72 201.274 360.566 201.274H549.839C550.258 201.274 550.672 201.192 551.059 201.032C551.446 200.872 551.798 200.637 552.094 200.341C552.39 200.045 552.625 199.694 552.785 199.307C552.946 198.921 553.028 198.506 553.028 198.087C553.029 197.669 552.946 197.254 552.786 196.867C552.626 196.481 552.392 196.129 552.096 195.833C551.8 195.537 551.448 195.302 551.062 195.142C550.675 194.981 550.261 194.899 549.842 194.898H360.566Z" fill="#E4E4E4"/>
<path d="M360.566 214.027C359.721 214.029 358.912 214.365 358.315 214.963C357.719 215.561 357.384 216.371 357.384 217.215C357.384 218.059 357.719 218.869 358.315 219.467C358.912 220.065 359.721 220.401 360.566 220.403H549.839C550.685 220.404 551.496 220.07 552.095 219.474C552.695 218.878 553.032 218.067 553.034 217.222C553.036 216.377 552.702 215.565 552.105 214.966C551.509 214.367 550.699 214.029 549.854 214.027H360.566Z" fill="#E4E4E4"/>
<path d="M631.993 337.222C633.088 337.101 634.143 336.742 635.084 336.169C636.026 335.596 636.83 334.824 637.44 333.907C638.051 332.99 638.453 331.95 638.619 330.861C638.784 329.772 638.708 328.659 638.397 327.603L660.19 312.036L647.203 307.035L628.499 322.584C626.758 323.224 625.312 324.481 624.436 326.116C623.56 327.751 623.314 329.65 623.744 331.455C624.175 333.259 625.252 334.843 626.773 335.905C628.293 336.968 630.15 337.437 631.993 337.222Z" fill="#FFB7B7"/>
<path d="M644.091 326.968L636.862 314.62L637.015 314.445L666.185 281.236L688.833 242.613L708.5 245.12L708.79 251.065L708.731 251.153L677.485 298.123L677.452 298.151L644.091 326.968Z" fill="#6E7B8F"/>
<path d="M740.467 535.916L729.346 535.915L724.054 493.016L740.469 493.017L740.467 535.916Z" fill="#FFB7B7"/>
<path d="M743.304 546.694L707.442 546.693V546.24C707.442 542.538 708.913 538.987 711.531 536.37C714.148 533.752 717.698 532.281 721.4 532.281L743.304 532.282L743.304 546.694Z" fill="#526179"/>
<path d="M644.748 535.55L633.93 532.967L638.746 490.012L654.712 493.824L644.748 535.55Z" fill="#FFB7B7"/>
<path d="M645.003 546.694L610.122 538.365L610.227 537.924C611.087 534.323 613.342 531.211 616.496 529.273C619.65 527.335 623.445 526.729 627.046 527.588L648.351 532.676L645.003 546.694Z" fill="#526179"/>
<path d="M687.973 223.003V204.282C687.973 197.628 690.616 191.248 695.32 186.543C700.025 181.838 706.406 179.195 713.059 179.195C719.712 179.195 726.093 181.838 730.798 186.543C735.502 191.248 738.145 197.628 738.145 204.282V223.003C738.144 223.896 737.789 224.753 737.157 225.384C736.525 226.016 735.669 226.372 734.775 226.373H691.342C690.449 226.372 689.592 226.016 688.961 225.384C688.329 224.753 687.974 223.896 687.973 223.003Z" fill="#526179"/>
<path d="M706.867 226.086C717.025 226.086 725.26 217.851 725.26 207.693C725.26 197.535 717.025 189.301 706.867 189.301C696.71 189.301 688.475 197.535 688.475 207.693C688.475 217.851 696.71 226.086 706.867 226.086Z" fill="#FFB7B7"/>
<path d="M682.038 205.778C682.044 200.517 684.136 195.473 687.856 191.752C691.577 188.032 696.621 185.94 701.882 185.934H705.626C710.888 185.94 715.932 188.032 719.652 191.752C723.372 195.473 725.465 200.517 725.471 205.778V206.152H717.558L714.859 198.595L714.319 206.152H710.23L708.868 202.339L708.596 206.152H682.038V205.778Z" fill="#526179"/>
<path d="M717.596 304.769L670.766 302.987L668.148 272.35C666.129 266.742 666.096 261.927 668.051 258.04C669.732 254.846 672.556 252.405 675.959 251.204L686.206 238.828C687.525 237.237 689.18 235.959 691.053 235.086C692.926 234.213 694.97 233.767 697.036 233.78L723.659 233.962C724.301 233.576 728.194 231.598 735.871 234.926C744.198 238.536 742.264 251.073 742.243 251.199L742.224 251.317L742.133 251.395L724.423 266.308L717.596 304.769Z" fill="#6E7B8F"/>
<path d="M671.139 299.695L648.988 340.081L632.194 523.818L651.169 529.613L684.756 385.883L723.736 525.535L746.481 526.104L730.994 364.945L717.46 302.549L671.139 299.695Z" fill="#526179"/>
<path d="M527.776 269.759C526.857 269.462 525.858 269.542 524.997 269.981C524.137 270.42 523.486 271.182 523.187 272.101L504.377 330.126C504.08 331.045 504.16 332.045 504.599 332.905C505.038 333.765 505.801 334.416 506.719 334.715L740.638 410.544C741.557 410.841 742.557 410.761 743.417 410.322C744.277 409.883 744.928 409.12 745.227 408.202L764.037 350.176C764.334 349.257 764.254 348.258 763.815 347.398C763.376 346.537 762.613 345.886 761.695 345.587L527.776 269.759Z" fill="white"/>
<path d="M527.776 269.759C526.857 269.462 525.858 269.542 524.997 269.981C524.137 270.42 523.486 271.182 523.187 272.101L504.377 330.126C504.08 331.045 504.16 332.045 504.599 332.905C505.038 333.765 505.801 334.416 506.719 334.715L740.638 410.544C741.557 410.841 742.557 410.761 743.417 410.322C744.277 409.883 744.928 409.12 745.227 408.202L764.037 350.176C764.334 349.257 764.254 348.258 763.815 347.398C763.376 346.537 762.613 345.886 761.695 345.587L527.776 269.759Z" fill="#E6E6E6"/>
<path d="M508.416 330.956L741.469 406.504L759.998 349.345L526.945 273.797L508.416 330.956Z" fill="white"/>
<path d="M548.11 298.838C547.305 298.578 546.431 298.648 545.678 299.032C544.926 299.417 544.356 300.084 544.096 300.888C543.835 301.692 543.904 302.567 544.288 303.32C544.672 304.072 545.34 304.642 546.144 304.903L726.193 363.269C726.592 363.399 727.012 363.449 727.429 363.416C727.847 363.384 728.254 363.269 728.627 363.079C729.001 362.889 729.333 362.627 729.605 362.309C729.877 361.99 730.084 361.621 730.213 361.223C730.342 360.824 730.392 360.404 730.359 359.987C730.326 359.569 730.211 359.162 730.02 358.789C729.83 358.416 729.567 358.084 729.249 357.812C728.93 357.541 728.561 357.334 728.162 357.206L728.159 357.205L548.11 298.838Z" fill="#D4D6D8"/>
<path d="M542.212 317.032C541.408 316.774 540.535 316.844 539.783 317.229C539.031 317.613 538.463 318.28 538.203 319.084C537.942 319.887 538.011 320.76 538.394 321.513C538.777 322.265 539.443 322.835 540.246 323.097L720.296 381.463C721.099 381.726 721.974 381.658 722.728 381.275C723.482 380.893 724.053 380.226 724.315 379.423C724.578 378.619 724.51 377.744 724.128 376.99C723.745 376.236 723.079 375.665 722.275 375.403L722.262 375.398L542.212 317.032Z" fill="#D4D6D8"/>
<path d="M730.32 365.076C731.14 364.34 731.788 363.433 732.22 362.42C732.652 361.406 732.856 360.31 732.818 359.209C732.78 358.108 732.501 357.028 732.001 356.046C731.501 355.065 730.792 354.205 729.923 353.527L738.571 328.18L725.101 331.679L718.954 355.213C717.912 356.747 717.469 358.611 717.709 360.45C717.949 362.289 718.855 363.977 720.256 365.193C721.657 366.408 723.455 367.068 725.31 367.047C727.165 367.025 728.947 366.324 730.32 365.076Z" fill="#FFB7B7"/>
<path d="M734.183 349.694L721.114 343.868L725.506 299.652L721.419 255.066L738.865 245.648L742.564 250.311L742.567 250.417L744.527 306.797L744.517 306.84L734.183 349.694Z" fill="#6E7B8F"/>
<path d="M1004.04 548.694H320.588C320.242 548.702 319.904 548.594 319.626 548.389C319.347 548.184 319.145 547.893 319.049 547.561C318.989 547.334 318.982 547.097 319.029 546.868C319.075 546.639 319.173 546.423 319.316 546.238C319.459 546.053 319.642 545.902 319.852 545.799C320.062 545.696 320.292 545.642 320.526 545.642H1003.91C1004.28 545.629 1004.63 545.74 1004.93 545.957C1005.22 546.173 1005.43 546.483 1005.53 546.835C1005.58 547.059 1005.58 547.29 1005.52 547.513C1005.47 547.736 1005.37 547.944 1005.23 548.122C1005.08 548.301 1004.9 548.445 1004.7 548.544C1004.49 548.643 1004.27 548.694 1004.04 548.694Z" fill="#CCCCCC"/>
<path d="M230.036 548.694H1.58815C1.24248 548.702 0.904084 548.594 0.625699 548.389C0.347314 548.184 0.144568 547.893 0.049054 547.561C-0.0105765 547.334 -0.0175171 547.097 0.0287598 546.868C0.0750367 546.639 0.173294 546.423 0.315984 546.238C0.458673 546.053 0.641984 545.902 0.851811 545.799C1.06164 545.696 1.29239 545.642 1.5263 545.642H229.911C230.276 545.629 230.634 545.74 230.928 545.957C231.221 546.173 231.432 546.483 231.527 546.835C231.577 547.059 231.576 547.29 231.524 547.513C231.472 547.736 231.371 547.944 231.228 548.122C231.084 548.301 230.903 548.445 230.697 548.544C230.491 548.643 230.265 548.694 230.036 548.694Z" fill="#CCCCCC"/>
</g>
<defs>
<clipPath id="clip0_157_58">
<rect width="1005.56" height="548.695" fill="white"/>
</clipPath>
</defs>
</svg>
